<svg width="543" height="124" viewBox="0 0 543 124" fill="none" xmlns="http://www.w3.org/2000/svg">
<path d="M97.4118 86.3068C100.07 89.3012 96.0311 97.7141 95.1328 96.1347C93.9897 94.1247 89.4042 88.3715 88.2425 87.1549C87.3131 86.1816 88.324 84.2165 88.9456 83.3556C89.5737 83.9857 90.541 84.2684 91.4902 85.8001C92.6768 87.7147 95.652 84.3248 97.4118 86.3068Z" fill="#3D4555"/>
<path d="M65.7975 5.07381C74.9267 6.07602 82.6971 8.70362 89.952 13.3262C90.3179 13.5594 91.0625 16.3802 89.952 19.7117C90.5073 18.6012 92.1731 16.1635 92.8802 15.3131C96.5323 10.9213 102.248 8.38762 108.351 9.05759C109.779 9.21439 111.149 9.538 112.443 10.0067C113.045 10.2247 112.974 11.0736 112.372 11.2903C107.704 12.9706 103.887 16.5827 101.997 21.2626C101.627 22.1805 101.835 23.2099 102.403 24.0207C105.174 27.977 108.55 34.2699 109.86 40.8646C110.572 44.4457 110.513 47.8982 110.137 51.2407C110.048 52.0335 109.015 51.994 108.938 51.2C108.608 47.7936 108.125 45.0769 106.615 42.228C104.031 37.352 98.9222 34.6761 95.5056 34.9467C90.7572 35.3229 86.659 38.7046 83.7387 43.983C82.7858 45.7053 80.3654 46.1667 78.8538 44.9061C73.7137 40.6196 67.4946 38.2661 60.928 38.6546C44.8565 39.6055 35.6521 54.1014 36.8377 74.1399C38.0232 94.1784 50.0504 107.514 64.8331 109.137C70.1174 109.717 79.5253 108.877 86.0292 105.889C86.8412 105.516 87.6939 106.438 87.1594 107.154C77.9432 119.499 61.3137 121.161 51.9677 120.135C20.771 116.072 -1.57656 87.7682 1.87243 56.3516C2.54283 50.245 4.05503 45.4725 6.66311 40.2563C7.77363 38.0353 10.2723 37.7021 11.9381 38.0353C16.6578 38.9792 20.1033 39.0762 24.8887 37.3803C21.6449 37.5488 18.3135 37.0494 15.0899 35.7947C2.9089 31.0538 -3.12303 17.3364 1.61794 5.1551C2.28121 3.45046 3.12049 1.86609 4.10689 0.414727C4.64652 -0.379261 5.85029 0.0490192 5.94249 1.00459C6.69066 8.75912 11.2568 15.8874 18.4475 19.6762C19.2978 20.1242 20.3275 19.9383 21.0471 19.3012C32.8607 8.84124 48.8775 3.21628 65.7975 5.07381Z" fill="#3D4555"/>
<path d="M101.769 61.1456C98.8268 61.0683 96.4847 63.9629 95.1168 66.4788C94.576 67.4733 93.8338 67.427 93.839 66.2919C93.8482 64.2636 94.1725 61.3485 95.1452 59.1749C96.8413 55.3844 99.0674 53.0248 101.531 52.7496C103.575 52.7494 104.039 61.1456 101.769 61.1456Z" fill="#79839A"/>
<path d="M103.276 88.3394C103.302 88.661 102.879 88.815 102.646 88.5914C101.689 87.6713 100.198 86.8299 98.3381 86.7725C96.2287 86.7073 94.6836 87.7071 92.358 87.3748C89.7002 86.9951 88.7071 85.3936 88.1207 83.8043C88.3321 81.2926 88.2579 76.1275 91.5304 74.7889C94.2404 73.6803 96.1694 74.5784 97.7064 75.5484C101.101 77.9093 101.676 80.1802 102.526 83.219C102.608 83.6082 103.119 86.3772 103.276 88.3394Z" fill="#79839A"/>
<path d="M95.1328 96.1342C94.3779 95.377 95.9377 92.006 91.6996 89.1864C90.0993 88.2425 88.2957 86.3545 88.8924 82.6964C88.6416 82.736 87.8694 83.3882 87.8694 83.3882C86.7695 86.615 87.2049 88.9738 89.1975 90.4849C91.5571 92.2744 93.3529 93.2623 95.1328 96.1342Z" fill="#79839A"/>
<path d="M110.31 44.0984C110.587 47.5131 110.264 50.8111 109.76 54.0098C109.703 54.3661 109.209 54.3446 109.18 53.9851C108.79 49.1842 108.516 45.8097 106.617 42.2262C104.032 37.3502 98.9235 34.6743 95.5068 34.9449C90.1219 35.3715 85.573 39.6636 82.6302 46.2038C82.0583 47.4748 81.6232 47.4722 80.6992 46.5701C75.2377 41.2374 68.3026 38.2166 60.9293 38.6528C45.6401 39.5574 35.8186 56.8919 36.8389 74.1381C37.8593 91.3842 46.9103 103.666 58.8369 107.788C48.4138 106.489 28.596 96.8924 28.5959 69.1295C28.5958 47.4205 36.3695 35.8143 50.8063 29.9837C59.4007 26.5126 75.2419 31.1648 79.9172 38.9537C80.6992 40.2565 80.9322 39.9788 81.3168 38.8228C84.362 29.6697 94.9892 24.2845 101.057 28.596C106.01 32.115 108.323 36.0675 110.31 44.0984Z" fill="#79839A"/>
<path d="M106.324 8.95C109.23 8.95 111.318 9.5974 112.447 10.0063C113.048 10.2243 112.978 11.0731 112.376 11.2899C107.707 12.9702 103.89 16.5822 102.001 21.2621C101.63 22.18 101.839 23.2095 102.407 24.0203C102.686 24.4194 102.972 24.8423 103.261 25.2869C103.257 25.2907 103.253 25.2944 103.249 25.2981C101.37 22.7342 99.9257 21.0823 100.78 17.7681C101.634 15.204 103.834 13.5279 105.499 12.7708C107.114 12.037 108.197 10.0804 106.324 8.95Z" fill="#79839A"/>
<path d="M21.3215 19.074C20.2511 20.3039 19.757 20.8716 17.6065 21.0252C4.10656 21.9895 6.00253 3.88519 0.854349 9.23058C0.67319 9.41868 0.504095 9.57846 0.346497 9.71185C0.612162 8.18272 1.03297 6.65723 1.6176 5.1551C2.28088 3.45046 3.12016 1.86609 4.10656 0.414727C4.64618 -0.379261 5.84996 0.0490191 5.94216 1.00459C6.69033 8.75912 11.2565 15.8874 18.4471 19.6762C19.2974 20.1242 20.3272 19.9383 21.0468 19.3012C21.1555 19.2049 21.2646 19.109 21.3741 19.0136C21.3564 19.0339 21.3388 19.054 21.3215 19.074Z" fill="#79839A"/>
<path d="M74.3017 75.3383C74.3889 75.5763 74.8266 75.5728 74.8625 75.3221C75.0173 74.2405 75.0931 73.1203 75.0814 71.9733C74.9899 62.983 69.5616 55.7482 62.9569 55.814C56.3522 55.8799 51.0722 63.2214 51.1636 72.2118C51.2551 81.2021 56.6834 88.4369 63.2881 88.3711C66.5015 88.339 69.4014 86.5847 71.5216 83.7561C71.9271 83.13 71.3052 83.0584 70.9821 83.13C70.6042 83.2137 70.218 83.2233 69.8342 83.1484C67.8091 82.7533 66.6203 80.1577 67.179 77.351C67.7377 74.5443 69.8324 72.5892 71.8575 72.9843C72.9823 73.2037 73.8491 74.102 74.3017 75.3383Z" fill="#FF6C19"/>
<path d="M132 75.5946C132 93.3391 144.696 105.553 162.196 105.553C179.696 105.553 192.392 93.3391 192.392 75.5946C192.392 57.8501 179.696 45.6364 162.196 45.6364C144.696 45.6364 132 57.8501 132 75.5946ZM145.954 75.5946C145.954 65.2245 152.588 58.1958 162.196 58.1958C171.804 58.1958 178.438 65.2245 178.438 75.5946C178.438 85.9648 171.804 92.9935 162.196 92.9935C152.588 92.9935 145.954 85.9648 145.954 75.5946Z" fill="#DADEE4"/>
<path d="M208.641 104.17H222.252L230.03 79.7427C232.889 70.4095 233.919 66.3767 234.491 63.7265C234.948 66.6071 236.206 72.0227 238.494 79.5122L246.272 104.17H259.311L278.87 47.2495H264.115L256.566 71.677C255.536 75.249 253.706 82.0472 252.791 86.3105C252.105 82.5081 249.817 73.9815 249.131 71.677L241.582 47.2495H227.399L219.621 71.677C217.791 77.323 216.762 80.8949 215.732 86.4257C214.703 81.1254 213.559 76.1707 212.301 71.677L204.866 47.2495H190.34L208.641 104.17Z" fill="#DADEE4"/>
<path d="M297.957 104.17V25H284.117V104.17H297.957Z" fill="#DADEE4"/>
<path d="M303.207 75.5946C303.207 93.3391 315.903 105.553 333.403 105.553C350.903 105.553 363.599 93.3391 363.599 75.5946C363.599 57.8501 350.903 45.6364 333.403 45.6364C315.903 45.6364 303.207 57.8501 303.207 75.5946ZM317.161 75.5946C317.161 65.2245 323.795 58.1958 333.403 58.1958C343.011 58.1958 349.645 65.2245 349.645 75.5946C349.645 85.9648 343.011 92.9935 333.403 92.9935C323.795 92.9935 317.161 85.9648 317.161 75.5946Z" fill="#DADEE4"/>
<path d="M367.912 75.5946C367.912 93.3391 380.608 105.553 398.108 105.553C415.608 105.553 428.304 93.3391 428.304 75.5946C428.304 57.8501 415.608 45.6364 398.108 45.6364C380.608 45.6364 367.912 57.8501 367.912 75.5946ZM381.866 75.5946C381.866 65.2245 388.5 58.1958 398.108 58.1958C407.716 58.1958 414.35 65.2245 414.35 75.5946C414.35 85.9648 407.716 92.9935 398.108 92.9935C388.5 92.9935 381.866 85.9648 381.866 75.5946Z" fill="#DADEE4"/>
<path d="M433.294 124H447.248V96.5654C450.794 102.327 458.114 105.668 466.579 105.668C483.392 105.668 493 92.763 493 75.0185C493 57.1588 482.477 45.5211 466.579 45.5211C458 45.5211 450.565 49.3235 447.134 55.8913L446.219 47.2495H433.294V124ZM447.363 75.7099C447.363 65.4549 453.654 58.311 463.261 58.311C473.098 58.311 478.931 65.5701 478.931 75.7099C478.931 85.8496 473.098 92.9935 463.261 92.9935C453.654 92.9935 447.363 85.9648 447.363 75.7099Z" fill="#DADEE4"/>
<path d="M496.333 86.8866C496.333 98.0633 505.255 105.668 519.323 105.668C533.278 105.668 543 98.5242 543 87.0018C543 78.2448 538.196 73.8663 528.703 71.677L518.523 69.2573C513.719 68.1051 511.203 66.031 511.203 62.8047C511.203 58.5415 514.405 56.0065 519.895 56.0065C525.271 56.0065 528.474 59.1176 528.588 63.957H541.856C541.742 52.8955 533.163 45.5211 520.467 45.5211C507.428 45.5211 498.049 52.2041 498.049 63.3809C498.049 72.4836 502.967 77.323 513.147 79.6275L523.327 82.0472C528.359 83.1994 529.846 85.2735 529.846 88.1541C529.846 92.3021 526.301 94.9523 519.781 94.9523C513.376 94.9523 509.716 91.8412 509.601 86.8866H496.333Z" fill="#DADEE4"/>
</svg>
