<svg width="305" height="263" viewBox="0 0 305 263" fill="none" xmlns="http://www.w3.org/2000/svg">
<g clip-path="url(#clip0_93_34)">
<path d="M175.067 166.859C178.125 170.324 173.478 180.058 172.445 178.23C171.13 175.905 165.854 169.248 164.518 167.84C163.449 166.714 164.612 164.441 165.327 163.444C166.049 164.173 167.162 164.501 168.254 166.273C169.619 168.488 173.042 164.566 175.067 166.859Z" fill="#3D4555"/>
<path d="M138.696 72.8705C149.199 74.0301 158.138 77.0703 166.485 82.4187C166.906 82.6886 167.762 85.9523 166.485 89.8069C167.123 88.522 169.04 85.7016 169.853 84.7176C174.055 79.6362 180.63 76.7047 187.652 77.4799C189.294 77.6613 190.871 78.0357 192.359 78.578C193.052 78.8302 192.97 79.8124 192.278 80.0632C186.907 82.0073 182.516 86.1866 180.342 91.6014C179.916 92.6634 180.155 93.8544 180.809 94.7925C183.997 99.3701 187.881 106.651 189.388 114.281C190.207 118.425 190.139 122.419 189.706 126.287C189.604 127.204 188.415 127.158 188.327 126.24C187.947 122.298 187.392 119.155 185.654 115.859C182.682 110.217 176.804 107.121 172.874 107.434C167.411 107.869 162.696 111.782 159.337 117.889C158.24 119.882 155.456 120.416 153.717 118.957C147.803 113.998 140.649 111.275 133.094 111.724C114.605 112.825 104.016 129.597 105.38 152.782C106.744 175.967 120.58 191.396 137.587 193.274C143.666 193.945 154.489 192.973 161.972 189.516C162.906 189.085 163.887 190.151 163.272 190.98C152.669 205.263 133.538 207.186 122.786 205.999C86.8958 201.298 61.1863 168.55 65.1541 132.2C65.9254 125.135 67.6651 119.613 70.6655 113.578C71.9431 111.008 74.8177 110.622 76.7341 111.008C82.1638 112.1 86.1277 112.212 91.633 110.25C87.9012 110.445 84.0686 109.867 80.3601 108.415C66.3465 102.93 59.4071 87.0586 64.8613 72.9646C65.6244 70.9923 66.5899 69.1591 67.7247 67.4798C68.3456 66.5612 69.7304 67.0567 69.8365 68.1623C70.6972 77.1345 75.9503 85.3821 84.2228 89.7659C85.201 90.2842 86.3856 90.0691 87.2135 89.332C100.804 77.2295 119.231 70.7213 138.696 72.8705Z" fill="#3D4555"/>
<path d="M180.079 137.747C176.695 137.658 174 141.007 172.426 143.918C171.804 145.068 170.95 145.015 170.956 143.701C170.967 141.355 171.34 137.982 172.459 135.467C174.41 131.081 176.971 128.351 179.806 128.033C182.157 128.032 182.691 137.747 180.079 137.747Z" fill="#79839A"/>
<path d="M181.813 169.211C181.843 169.583 181.356 169.761 181.088 169.502C179.987 168.438 178.272 167.464 176.132 167.398C173.705 167.322 171.928 168.479 169.252 168.095C166.195 167.655 165.052 165.802 164.378 163.964C164.621 161.058 164.536 155.081 168.3 153.533C171.418 152.25 173.637 153.289 175.405 154.411C179.311 157.143 179.972 159.77 180.95 163.286C181.044 163.737 181.632 166.941 181.813 169.211Z" fill="#79839A"/>
<path d="M172.445 178.23C171.576 177.354 173.371 173.453 168.495 170.191C166.654 169.099 164.579 166.914 165.266 162.682C164.977 162.728 164.089 163.482 164.089 163.482C162.823 167.216 163.324 169.945 165.617 171.693C168.331 173.764 170.397 174.907 172.445 178.23Z" fill="#79839A"/>
<path d="M189.905 118.023C190.224 121.974 189.852 125.79 189.273 129.491C189.207 129.903 188.639 129.878 188.605 129.462C188.157 123.907 187.841 120.003 185.657 115.857C182.683 110.215 176.806 107.119 172.875 107.432C166.68 107.926 161.447 112.892 158.061 120.459C157.403 121.929 156.903 121.926 155.84 120.883C149.557 114.713 141.578 111.218 133.096 111.722C115.506 112.769 104.207 132.825 105.381 152.78C106.555 172.734 116.968 186.944 130.688 191.713C118.697 190.21 95.8981 179.107 95.8979 146.985C95.8978 121.867 104.841 108.438 121.45 101.692C131.337 97.6758 149.561 103.058 154.94 112.07C155.84 113.578 156.108 113.256 156.55 111.919C160.054 101.329 172.28 95.0977 179.26 100.086C184.958 104.158 187.619 108.731 189.905 118.023Z" fill="#79839A"/>
<path d="M185.32 77.3553C188.663 77.3553 191.065 78.1044 192.364 78.5775C193.055 78.8297 192.975 79.8118 192.282 80.0627C186.912 82.0068 182.521 86.186 180.346 91.6008C179.92 92.6628 180.16 93.8539 180.813 94.7921C181.134 95.2538 181.463 95.7431 181.796 96.2575C181.791 96.2619 181.787 96.2662 181.783 96.2705C179.62 93.304 177.959 91.3927 178.942 87.5581C179.924 84.5914 182.455 82.6521 184.371 81.7761C186.229 80.9271 187.474 78.6632 185.32 77.3553Z" fill="#79839A"/>
<path d="M87.5292 89.0691C86.2978 90.4921 85.7294 91.149 83.2553 91.3267C67.7244 92.4424 69.9056 71.4953 63.9829 77.68C63.7745 77.8976 63.58 78.0825 63.3987 78.2369C63.7043 76.4676 64.1884 74.7026 64.861 72.9646C65.6241 70.9923 66.5896 69.1591 67.7244 67.4798C68.3452 66.5612 69.7301 67.0567 69.8362 68.1623C70.6969 77.1345 75.95 85.3821 84.2224 89.7659C85.2006 90.2842 86.3853 90.0691 87.2132 89.332C87.3382 89.2205 87.4638 89.1096 87.5897 88.9992C87.5694 89.0227 87.5491 89.0459 87.5292 89.0691Z" fill="#79839A"/>
<path d="M148.48 154.168C148.58 154.444 149.084 154.44 149.125 154.15C149.303 152.898 149.39 151.602 149.377 150.275C149.272 139.873 143.027 131.502 135.428 131.578C127.83 131.654 121.756 140.149 121.861 150.551C121.966 160.953 128.211 169.324 135.809 169.248C139.506 169.21 142.842 167.181 145.281 163.908C145.748 163.183 145.033 163.101 144.661 163.183C144.226 163.28 143.782 163.291 143.34 163.205C141.01 162.748 139.643 159.744 140.286 156.497C140.928 153.25 143.338 150.987 145.668 151.445C146.962 151.698 147.959 152.738 148.48 154.168Z" fill="#FF6C19"/>
</g>
<path d="M200.757 102.755L210.107 71.2607C210.238 70.8213 210.417 70.5039 210.645 70.3086C210.872 70.097 211.206 69.9912 211.646 69.9912H215.991C216.821 69.9912 217.358 70.4144 217.603 71.2607L226.904 102.755C226.953 102.934 226.978 103.097 226.978 103.243C226.978 103.748 226.652 104 226.001 104H221.509C220.776 104 220.288 103.585 220.044 102.755L218.311 96.6514H209.009L207.251 102.755C207.121 103.194 206.942 103.512 206.714 103.707C206.502 103.902 206.185 104 205.762 104H201.709C201.025 104 200.684 103.748 200.684 103.243C200.684 103.097 200.708 102.934 200.757 102.755ZM210.449 91.3047H216.797L215.161 85.7383C214.884 84.8594 214.583 83.305 214.258 81.0752C213.932 78.8454 213.745 77.3724 213.696 76.6562C212.948 81.7507 212.435 84.7617 212.158 85.6895L210.449 91.3047ZM231.128 102.706V71.3096C231.128 70.8538 231.217 70.5202 231.396 70.3086C231.592 70.097 231.909 69.9912 232.349 69.9912H236.694C237.134 69.9912 237.443 70.097 237.622 70.3086C237.801 70.5039 237.891 70.8376 237.891 71.3096V102.706C237.891 103.162 237.801 103.495 237.622 103.707C237.443 103.902 237.134 104 236.694 104H232.349C231.909 104 231.592 103.902 231.396 103.707C231.217 103.495 231.128 103.162 231.128 102.706Z" fill="#FF6C19"/>
<defs>
<clipPath id="clip0_93_34">
<rect width="130" height="140" fill="white" transform="translate(63 67)"/>
</clipPath>
</defs>
</svg>
