<svg width="305" height="263" viewBox="0 0 305 263" fill="none" xmlns="http://www.w3.org/2000/svg">
<g clip-path="url(#clip0_93_53)">
<path d="M155.067 166.859C158.125 170.324 153.478 180.058 152.445 178.23C151.13 175.905 145.854 169.248 144.518 167.84C143.449 166.714 144.612 164.441 145.327 163.445C146.049 164.174 147.162 164.501 148.254 166.273C149.619 168.488 153.042 164.566 155.067 166.859Z" fill="#3D4555"/>
<path d="M118.696 72.8705C129.199 74.0301 138.138 77.0703 146.485 82.4187C146.906 82.6886 147.762 85.9523 146.485 89.8069C147.123 88.522 149.04 85.7016 149.853 84.7176C154.055 79.6362 160.63 76.7047 167.652 77.4799C169.294 77.6613 170.871 78.0357 172.359 78.578C173.052 78.8302 172.97 79.8124 172.278 80.0632C166.907 82.0073 162.516 86.1866 160.342 91.6014C159.916 92.6634 160.155 93.8544 160.809 94.7925C163.997 99.3701 167.881 106.651 169.388 114.281C170.207 118.425 170.139 122.419 169.706 126.287C169.604 127.204 168.415 127.158 168.327 126.24C167.947 122.298 167.392 119.155 165.654 115.859C162.682 110.217 156.804 107.121 152.874 107.434C147.411 107.869 142.696 111.782 139.337 117.889C138.24 119.882 135.456 120.416 133.717 118.957C127.803 113.998 120.649 111.275 113.094 111.724C94.6048 112.825 84.0157 129.597 85.3797 152.782C86.7435 175.967 100.58 191.396 117.587 193.274C123.666 193.945 134.489 192.973 141.972 189.516C142.906 189.085 143.887 190.151 143.272 190.98C132.669 205.263 113.538 207.186 102.786 205.999C66.8958 201.298 41.1863 168.55 45.1541 132.2C45.9254 125.135 47.6651 119.613 50.6655 113.578C51.9431 111.008 54.8177 110.622 56.7341 111.008C62.1638 112.1 66.1277 112.212 71.633 110.25C67.9012 110.445 64.0686 109.867 60.3601 108.415C46.3465 102.93 39.4071 87.0586 44.8613 72.9646C45.6244 70.9923 46.5899 69.1591 47.7247 67.4798C48.3456 66.5612 49.7304 67.0567 49.8365 68.1623C50.6972 77.1345 55.9503 85.3821 64.2228 89.7659C65.201 90.2842 66.3856 90.0691 67.2135 89.332C80.8043 77.2295 99.2308 70.7213 118.696 72.8705Z" fill="#3D4555"/>
<path d="M160.079 137.747C156.695 137.658 154 141.007 152.426 143.918C151.804 145.068 150.95 145.015 150.956 143.701C150.967 141.355 151.34 137.982 152.459 135.467C154.41 131.081 156.971 128.351 159.806 128.033C162.157 128.032 162.691 137.747 160.079 137.747Z" fill="#79839A"/>
<path d="M161.813 169.211C161.843 169.583 161.356 169.761 161.088 169.502C159.987 168.438 158.272 167.464 156.132 167.398C153.705 167.323 151.928 168.479 149.252 168.095C146.195 167.656 145.052 165.803 144.378 163.964C144.621 161.058 144.536 155.081 148.3 153.533C151.418 152.25 153.637 153.289 155.405 154.411C159.311 157.143 159.972 159.771 160.95 163.286C161.044 163.737 161.632 166.941 161.813 169.211Z" fill="#79839A"/>
<path d="M152.445 178.23C151.576 177.354 153.371 173.453 148.495 170.191C146.654 169.099 144.579 166.914 145.266 162.682C144.977 162.728 144.089 163.482 144.089 163.482C142.823 167.216 143.324 169.945 145.617 171.693C148.331 173.764 150.397 174.907 152.445 178.23Z" fill="#79839A"/>
<path d="M169.905 118.023C170.224 121.974 169.852 125.79 169.273 129.491C169.207 129.903 168.639 129.878 168.605 129.462C168.157 123.907 167.841 120.003 165.657 115.857C162.683 110.215 156.806 107.119 152.875 107.432C146.68 107.926 141.447 112.892 138.061 120.459C137.403 121.93 136.903 121.927 135.84 120.883C129.557 114.713 121.578 111.218 113.096 111.722C95.5063 112.769 84.2073 132.825 85.381 152.78C86.5548 172.734 96.9676 186.944 110.688 191.713C98.6973 190.21 75.8981 179.107 75.8979 146.985C75.8978 121.867 84.841 108.438 101.45 101.692C111.337 97.6759 129.561 103.058 134.94 112.07C135.84 113.578 136.108 113.256 136.55 111.919C140.054 101.329 152.28 95.0978 159.26 100.086C164.958 104.158 167.619 108.731 169.905 118.023Z" fill="#79839A"/>
<path d="M165.32 77.3553C168.663 77.3553 171.065 78.1044 172.364 78.5775C173.055 78.8297 172.975 79.8118 172.282 80.0627C166.912 82.0068 162.521 86.186 160.346 91.6008C159.92 92.6628 160.16 93.8539 160.813 94.7921C161.134 95.2538 161.463 95.7431 161.796 96.2575C161.791 96.2619 161.787 96.2662 161.783 96.2705C159.62 93.304 157.959 91.3927 158.942 87.5581C159.924 84.5914 162.455 82.6521 164.371 81.7761C166.229 80.9271 167.474 78.6632 165.32 77.3553Z" fill="#79839A"/>
<path d="M67.5292 89.0691C66.2978 90.4921 65.7294 91.149 63.2553 91.3267C47.7244 92.4424 49.9056 71.4953 43.9829 77.68C43.7745 77.8976 43.58 78.0825 43.3987 78.2369C43.7043 76.4676 44.1884 74.7026 44.861 72.9646C45.6241 70.9923 46.5896 69.1591 47.7244 67.4798C48.3452 66.5612 49.7301 67.0567 49.8362 68.1623C50.6969 77.1345 55.95 85.3821 64.2224 89.7659C65.2006 90.2842 66.3853 90.0691 67.2132 89.332C67.3382 89.2205 67.4638 89.1096 67.5897 88.9992C67.5694 89.0227 67.5491 89.0459 67.5292 89.0691Z" fill="#79839A"/>
<path d="M128.48 154.168C128.58 154.444 129.084 154.44 129.125 154.15C129.303 152.898 129.39 151.602 129.377 150.275C129.272 139.873 123.027 131.502 115.428 131.578C107.83 131.654 101.756 140.149 101.861 150.551C101.966 160.953 108.211 169.324 115.809 169.248C119.506 169.21 122.842 167.181 125.281 163.908C125.748 163.183 125.033 163.101 124.661 163.183C124.226 163.28 123.782 163.291 123.34 163.205C121.01 162.748 119.643 159.744 120.286 156.497C120.928 153.25 123.338 150.987 125.668 151.445C126.962 151.698 127.959 152.738 128.48 154.168Z" fill="#FF6C19"/>
</g>
<path d="M180.491 102.706V71.3096C180.491 70.8538 180.581 70.5202 180.76 70.3086C180.955 70.097 181.272 69.9912 181.712 69.9912H192.21C194.391 69.9912 196.287 70.2191 197.898 70.6748C199.51 71.1143 200.763 71.7246 201.658 72.5059C202.57 73.2871 203.237 74.1497 203.66 75.0938C204.083 76.0215 204.295 77.0387 204.295 78.1455V82.9062C204.295 84.5013 203.855 85.9336 202.977 87.2031C202.098 88.4564 200.706 89.4248 198.802 90.1084L204.197 102.706C204.36 103.097 204.327 103.414 204.1 103.658C203.872 103.886 203.522 104 203.05 104H198.655C198.427 104 198.232 103.943 198.069 103.829C197.923 103.699 197.809 103.569 197.728 103.438C197.662 103.292 197.557 103.048 197.41 102.706L192.503 91.0605H192.21H187.254V102.706C187.254 103.162 187.164 103.495 186.985 103.707C186.806 103.902 186.497 104 186.058 104H181.712C181.272 104 180.955 103.902 180.76 103.707C180.581 103.495 180.491 103.162 180.491 102.706ZM187.254 85.4453H192.21C193.919 85.4453 195.245 85.1279 196.189 84.4932C197.133 83.8584 197.605 82.9307 197.605 81.71V79.3418C197.605 78.1211 197.133 77.1934 196.189 76.5586C195.245 75.9238 193.919 75.6064 192.21 75.6064H187.254V85.4453ZM210.472 102.706V71.3096C210.472 70.8538 210.561 70.5202 210.74 70.3086C210.936 70.097 211.253 69.9912 211.692 69.9912H228.782C229.222 69.9912 229.539 70.0889 229.734 70.2842C229.93 70.4632 230.027 70.7725 230.027 71.2119V74.3613C230.027 74.8008 229.93 75.1182 229.734 75.3135C229.539 75.5088 229.222 75.6064 228.782 75.6064H217.234V83.7119H227.928C228.383 83.7119 228.709 83.8014 228.904 83.9805C229.116 84.1595 229.222 84.4688 229.222 84.9082V87.9111C229.222 88.3343 229.116 88.6436 228.904 88.8389C228.709 89.0179 228.383 89.1074 227.928 89.1074H217.234V98.4092H229.271C229.726 98.4092 230.052 98.4987 230.247 98.6777C230.442 98.8568 230.54 99.166 230.54 99.6055V102.755C230.54 103.211 230.442 103.536 230.247 103.731C230.052 103.91 229.726 104 229.271 104H211.692C211.253 104 210.936 103.902 210.74 103.707C210.561 103.495 210.472 103.162 210.472 102.706ZM235.521 96.2607V77.7549C235.521 76.876 235.634 76.054 235.862 75.2891C236.09 74.5241 236.489 73.7917 237.059 73.0918C237.628 72.3757 238.344 71.7653 239.207 71.2607C240.086 70.7562 241.209 70.3574 242.576 70.0645C243.943 69.7552 245.506 69.6006 247.264 69.6006C249.021 69.6006 250.584 69.7552 251.951 70.0645C253.318 70.3574 254.433 70.7562 255.296 71.2607C256.175 71.7653 256.899 72.3757 257.469 73.0918C258.038 73.7917 258.437 74.5241 258.665 75.2891C258.893 76.054 259.007 76.876 259.007 77.7549V80.1475C259.007 80.6032 258.917 80.9287 258.738 81.124C258.576 81.3031 258.283 81.3926 257.859 81.3926H253.709C253.253 81.3926 252.928 81.3031 252.732 81.124C252.553 80.9287 252.464 80.6032 252.464 80.1475V78.9512C252.464 76.4447 250.763 75.1914 247.361 75.1914C243.992 75.1914 242.308 76.4447 242.308 78.9512V95.04C242.308 97.5465 243.992 98.7998 247.361 98.7998C250.763 98.7998 252.464 97.5465 252.464 95.04V93.1602C252.464 92.7044 252.553 92.3789 252.732 92.1836C252.928 91.9883 253.253 91.8906 253.709 91.8906H257.859C258.283 91.8906 258.576 91.9883 258.738 92.1836C258.917 92.3789 259.007 92.7044 259.007 93.1602V96.2607C259.007 97.1396 258.893 97.9616 258.665 98.7266C258.437 99.4915 258.038 100.232 257.469 100.948C256.899 101.648 256.175 102.25 255.296 102.755C254.433 103.243 253.318 103.642 251.951 103.951C250.584 104.244 249.021 104.391 247.264 104.391C245.506 104.391 243.943 104.244 242.576 103.951C241.209 103.642 240.086 103.243 239.207 102.755C238.344 102.25 237.628 101.648 237.059 100.948C236.489 100.232 236.09 99.4915 235.862 98.7266C235.634 97.9616 235.521 97.1396 235.521 96.2607Z" fill="#FF6C19"/>
<defs>
<clipPath id="clip0_93_53">
<rect width="130" height="140" fill="white" transform="translate(43 67)"/>
</clipPath>
</defs>
</svg>
